ffmpeg started on 2016-12-01 at 17:19:06
Report written to "Output/x264/results/ffmpeg/old_town_cross_2160p50slow6000k.log"
Command line:
Tools/ffmpeg/ffmpeg -benchmark -y -i Input/y4m/old_town_cross_2160p50.y4m -c:v libx264 -preset slow -b:v 6000k -an Output/x264/encoded/old_town_cross_2160p50slow6000k.mkv
ffmpeg version N-82227-gdb23fde Copyright (c) 2000-2016 the FFmpeg developers
  built with gcc 5.4.0 (Ubuntu 5.4.0-6ubuntu1~16.04.2) 20160609
  configuration: --prefix=/home/jaroslav/ffmpeg_build --pkg-config-flags=--static --extra-cflags=-I/home/jaroslav/ffmpeg_build/include --extra-ldflags=-L/home/jaroslav/ffmpeg_build/lib --bindir=/home/jaroslav/bin --enable-gpl --enable-libass --enable-libfdk-aac --enable-libfreetype --enable-libmp3lame --enable-libopus --enable-libtheora --enable-libvorbis --enable-libvpx --enable-libx264 --enable-libx265 --enable-nvenc --enable-libmfx --enable-libxvid --enable-libgsm --enable-libopencore-amrnb --enable-version3 --enable-nonfree
  libavutil      55. 35.100 / 55. 35.100
  libavcodec     57. 66.101 / 57. 66.101
  libavformat    57. 57.100 / 57. 57.100
  libavdevice    57.  2.100 / 57.  2.100
  libavfilter     6. 66.100 /  6. 66.100
  libswscale      4.  3.100 /  4.  3.100
  libswresample   2.  4.100 /  2.  4.100
  libpostproc    54.  2.100 / 54.  2.100
Input #0, yuv4mpegpipe, from 'Input/y4m/old_town_cross_2160p50.y4m':
  Duration: 00:00:10.00, start: 0.000000, bitrate: 4976642 kb/s
    Stream #0:0: Video: rawvideo (I420 / 0x30323449), yuv420p(progressive), 3840x2160, SAR 1:1 DAR 16:9, 50 fps, 50 tbr, 50 tbn, 50 tbc
[libx264 @ 0x2b58120] using SAR=1/1
[libx264 @ 0x2b58120] using cpu capabilities: MMX2 SSE2Fast SSSE3 SSE4.2 AVX FMA3 AVX2 LZCNT BMI2
[libx264 @ 0x2b58120] profile High, level 5.2
[libx264 @ 0x2b58120] 264 - core 148 - H.264/MPEG-4 AVC codec - Copyleft 2003-2016 - http://www.videolan.org/x264.html - options: cabac=1 ref=5 deblock=1:0:0 analyse=0x3:0x113 me=hex subme=8 psy=1 psy_rd=1.00:0.00 mixed_ref=1 me_range=16 chroma_me=1 trellis=2 8x8dct=1 cqm=0 deadzone=21,11 fast_pskip=1 chroma_qp_offset=-2 threads=6 lookahead_threads=1 sliced_threads=0 nr=0 decimate=1 interlaced=0 bluray_compat=0 constrained_intra=0 bframes=3 b_pyramid=2 b_adapt=1 b_bias=0 direct=3 weightb=1 open_gop=0 weightp=2 keyint=250 keyint_min=25 scenecut=40 intra_refresh=0 rc_lookahead=50 rc=abr mbtree=1 bitrate=6000 ratetol=1.0 qcomp=0.60 qpmin=0 qpmax=69 qpstep=4 ip_ratio=1.40 aq=1:1.00
Output #0, matroska, to 'Output/x264/encoded/old_town_cross_2160p50slow6000k.mkv':
  Metadata:
    encoder         : Lavf57.57.100
    Stream #0:0: Video: h264 (libx264) (H264 / 0x34363248), yuv420p, 3840x2160 [SAR 1:1 DAR 16:9], q=-1--1, 6000 kb/s, 50 fps, 1k tbn, 50 tbc
    Metadata:
      encoder         : Lavc57.66.101 libx264
    Side data:
      cpb: bitrate max/min/avg: 0/0/6000000 buffer size: 0 vbv_delay: -1
Stream mapping:
  Stream #0:0 -> #0:0 (rawvideo (native) -> h264 (libx264))
Press [q] to stop, [?] for help
frame=   57 fps= 18 q=0.0 size=       0kB time=00:00:00.00 bitrate=N/A speed=   0x    frame=   62 fps= 17 q=38.0 size=       1kB time=-00:00:00.01 bitrate=N/A speed=N/A    frame=   69 fps= 16 q=44.0 size=       1kB time=00:00:00.12 bitrate=  48.5kbits/s speed=0.0286x    frame=   77 fps= 16 q=40.0 size=       1kB time=00:00:00.28 bitrate=  20.9kbits/s speed=0.0589x    frame=   84 fps= 16 q=40.0 size=       1kB time=00:00:00.42 bitrate=  13.9kbits/s speed=0.0783x    frame=   89 fps= 15 q=38.0 size=       1kB time=00:00:00.52 bitrate=  11.3kbits/s speed=0.0882x    frame=   96 fps= 15 q=38.0 size=       1kB time=00:00:00.66 bitrate=   8.9kbits/s speed= 0.1x    frame=  103 fps= 14 q=37.0 size=       1kB time=00:00:00.80 bitrate=   7.3kbits/s speed=0.109x    frame=  111 fps= 14 q=37.0 size=       1kB time=00:00:00.96 bitrate=   6.1kbits/s speed=0.12x    frame=  116 fps= 14 q=37.0 size=       1kB time=00:00:01.06 bitrate=   5.5kbits/s speed=0.124x    frame=  122 fps= 13 q=36.0 size=       1kB time=00:00:01.18 bitrate=   5.0kbits/s speed=0.129x    frame=  127 fps= 13 q=36.0 size=       1kB time=00:00:01.28 bitrate=   4.6kbits/s speed=0.131x    frame=  131 fps= 13 q=36.0 size=       1kB time=00:00:01.36 bitrate=   4.3kbits/s speed=0.132x    frame=  137 fps= 13 q=36.0 size=       1kB time=00:00:01.48 bitrate=   4.0kbits/s speed=0.136x    frame=  143 fps= 12 q=36.0 size=       1kB time=00:00:01.60 bitrate=   3.7kbits/s speed=0.138x    frame=  150 fps= 12 q=36.0 size=       1kB time=00:00:01.74 bitrate=   3.4kbits/s speed=0.143x    frame=  153 fps= 12 q=36.0 size=       1kB time=00:00:01.80 bitrate=   3.3kbits/s speed=0.142x    frame=  159 fps= 12 q=36.0 size=       1kB time=00:00:01.92 bitrate=   3.1kbits/s speed=0.143x    frame=  165 fps= 12 q=36.0 size=       1kB time=00:00:02.04 bitrate=   2.9kbits/s speed=0.146x    frame=  171 fps= 12 q=36.0 size=       1kB time=00:00:02.16 bitrate=   2.7kbits/s speed=0.146x    frame=  176 fps= 11 q=36.0 size=       1kB time=00:00:02.26 bitrate=   2.6kbits/s speed=0.147x    frame=  183 fps= 11 q=36.0 size=       1kB time=00:00:02.40 bitrate=   2.4kbits/s speed=0.148x    frame=  188 fps= 11 q=36.0 size=       1kB time=00:00:02.50 bitrate=   2.3kbits/s speed=0.15x    frame=  193 fps= 11 q=36.0 size=       1kB time=00:00:02.60 bitrate=   2.3kbits/s speed=0.151x    frame=  199 fps= 11 q=36.0 size=       1kB time=00:00:02.72 bitrate=   2.2kbits/s speed=0.152x    frame=  203 fps= 11 q=35.0 size=       1kB time=00:00:02.80 bitrate=   2.1kbits/s speed=0.151x    frame=  210 fps= 11 q=35.0 size=       1kB time=00:00:02.94 bitrate=   2.0kbits/s speed=0.154x    frame=  213 fps= 11 q=35.0 size=       1kB time=00:00:03.00 bitrate=   2.0kbits/s speed=0.153x    frame=  219 fps= 11 q=35.0 size=       1kB time=00:00:03.12 bitrate=   1.9kbits/s speed=0.153x    frame=  225 fps= 11 q=35.0 size=       1kB time=00:00:03.24 bitrate=   1.8kbits/s speed=0.155x    frame=  231 fps= 11 q=35.0 size=       1kB time=00:00:03.36 bitrate=   1.7kbits/s speed=0.156x    frame=  235 fps= 11 q=35.0 size=       1kB time=00:00:03.44 bitrate=   1.7kbits/s speed=0.155x    frame=  242 fps= 11 q=35.0 size=       1kB time=00:00:03.58 bitrate=   1.6kbits/s speed=0.158x    frame=  247 fps= 10 q=35.0 size=       1kB time=00:00:03.68 bitrate=   1.6kbits/s speed=0.156x    frame=  253 fps= 11 q=35.0 size=       1kB time=00:00:03.80 bitrate=   1.5kbits/s speed=0.158x    frame=  256 fps= 10 q=35.0 size=       1kB time=00:00:03.86 bitrate=   1.5kbits/s speed=0.157x    frame=  261 fps= 10 q=35.0 size=       1kB time=00:00:03.96 bitrate=   1.5kbits/s speed=0.157x    frame=  267 fps= 10 q=35.0 size=       1kB time=00:00:04.08 bitrate=   1.4kbits/s speed=0.157x    frame=  271 fps= 10 q=35.0 size=       1kB time=00:00:04.16 bitrate=   1.4kbits/s speed=0.157x    frame=  272 fps=9.9 q=35.0 size=       1kB time=00:00:04.18 bitrate=   1.4kbits/s speed=0.153x    frame=  273 fps=9.7 q=35.0 size=       1kB time=00:00:04.20 bitrate=   1.4kbits/s speed=0.149x    frame=  275 fps=9.5 q=35.0 size=       1kB time=00:00:04.24 bitrate=   1.4kbits/s speed=0.146x    frame=  279 fps=9.4 q=36.0 size=       1kB time=00:00:04.32 bitrate=   1.4kbits/s speed=0.146x    frame=  283 fps=9.4 q=36.0 size=       1kB time=00:00:04.40 bitrate=   1.3kbits/s speed=0.146x    frame=  287 fps=9.4 q=36.0 size=       1kB time=00:00:04.48 bitrate=   1.3kbits/s speed=0.146x    frame=  291 fps=9.4 q=36.0 size=       1kB time=00:00:04.56 bitrate=   1.3kbits/s speed=0.147x    frame=  295 fps=9.3 q=36.0 size=       1kB time=00:00:04.64 bitrate=   1.3kbits/s speed=0.147x    frame=  299 fps=9.3 q=36.0 size=       1kB time=00:00:04.72 bitrate=   1.2kbits/s speed=0.147x    frame=  303 fps=9.3 q=36.0 size=       1kB time=00:00:04.80 bitrate=   1.2kbits/s speed=0.147x    frame=  310 fps=9.3 q=36.0 size=    3478kB time=00:00:04.94 bitrate=5766.3kbits/s speed=0.148x    frame=  311 fps=9.2 q=37.0 size=    3478kB time=00:00:04.96 bitrate=5743.1kbits/s speed=0.146x    frame=  317 fps=9.2 q=37.0 size=    3478kB time=00:00:05.08 bitrate=5607.4kbits/s speed=0.147x    frame=  323 fps=9.2 q=37.0 size=    3478kB time=00:00:05.20 bitrate=5478.1kbits/s speed=0.148x    frame=  329 fps=9.2 q=37.0 size=    3478kB time=00:00:05.32 bitrate=5354.5kbits/s speed=0.149x    frame=  333 fps=9.2 q=37.0 size=    3478kB time=00:00:05.40 bitrate=5275.2kbits/s speed=0.149x    frame=  338 fps=9.2 q=37.0 size=    3478kB time=00:00:05.50 bitrate=5179.3kbits/s speed=0.15x    frame=  344 fps=9.2 q=37.0 size=    3478kB time=00:00:05.62 bitrate=5068.7kbits/s speed=0.15x    frame=  350 fps=9.2 q=37.0 size=    3478kB time=00:00:05.74 bitrate=4962.8kbits/s speed=0.151x    frame=  354 fps=9.2 q=37.0 size=    3478kB time=00:00:05.82 bitrate=4894.6kbits/s speed=0.151x    frame=  360 fps=9.2 q=37.0 size=    3478kB time=00:00:05.94 bitrate=4795.7kbits/s speed=0.151x    frame=  364 fps=9.1 q=37.0 size=    3478kB time=00:00:06.02 bitrate=4732.0kbits/s speed=0.151x    frame=  371 fps=9.2 q=37.0 size=    3478kB time=00:00:06.16 bitrate=4624.5kbits/s speed=0.152x    frame=  377 fps=9.2 q=37.0 size=    3478kB time=00:00:06.28 bitrate=4536.1kbits/s speed=0.153x    frame=  382 fps=9.1 q=37.0 size=    3478kB time=00:00:06.38 bitrate=4465.0kbits/s speed=0.153x    frame=  388 fps=9.2 q=37.0 size=    3478kB time=00:00:06.50 bitrate=4382.6kbits/s speed=0.153x    frame=  394 fps=9.2 q=37.0 size=    3478kB time=00:00:06.62 bitrate=4303.2kbits/s speed=0.154x    frame=  397 fps=9.1 q=37.0 size=    3478kB time=00:00:06.68 bitrate=4264.5kbits/s speed=0.153x    frame=  403 fps=9.1 q=37.0 size=    3478kB time=00:00:06.80 bitrate=4189.3kbits/s speed=0.154x    frame=  408 fps=9.1 q=37.0 size=    3478kB time=00:00:06.90 bitrate=4128.6kbits/s speed=0.155x    frame=  412 fps=9.1 q=37.0 size=    3478kB time=00:00:06.98 bitrate=4081.3kbits/s speed=0.154x    frame=  419 fps=9.1 q=36.0 size=    3478kB time=00:00:07.12 bitrate=4001.0kbits/s speed=0.155x    frame=  422 fps=9.1 q=36.0 size=    3478kB time=00:00:07.18 bitrate=3967.6kbits/s speed=0.155x    frame=  427 fps=9.1 q=36.0 size=    3478kB time=00:00:07.28 bitrate=3913.1kbits/s speed=0.155x    frame=  432 fps=9.1 q=36.0 size=    3478kB time=00:00:07.38 bitrate=3860.1kbits/s speed=0.156x    frame=  436 fps=9.1 q=36.0 size=    3478kB time=00:00:07.46 bitrate=3818.7kbits/s speed=0.155x    frame=  442 fps=9.1 q=36.0 size=    3478kB time=00:00:07.58 bitrate=3758.3kbits/s speed=0.156x    frame=  446 fps=9.1 q=36.0 size=    3478kB time=00:00:07.66 bitrate=3719.0kbits/s speed=0.156x    frame=  452 fps=9.1 q=36.0 size=    3478kB time=00:00:07.78 bitrate=3661.7kbits/s speed=0.156x    frame=  458 fps=9.1 q=36.0 size=    3478kB time=00:00:07.90 bitrate=3606.1kbits/s speed=0.157x    frame=  462 fps=9.1 q=36.0 size=    3478kB time=00:00:07.98 bitrate=3569.9kbits/s speed=0.157x    frame=  469 fps=9.1 q=36.0 size=    3478kB time=00:00:08.12 bitrate=3508.4kbits/s speed=0.157x    frame=  472 fps=9.0 q=36.0 size=    3478kB time=00:00:08.18 bitrate=3482.6kbits/s speed=0.157x    frame=  479 fps=9.1 q=36.0 size=    3478kB time=00:00:08.32 bitrate=3424.0kbits/s speed=0.157x    frame=  485 fps=9.1 q=36.0 size=    3478kB time=00:00:08.44 bitrate=3375.4kbits/s speed=0.158x    frame=  489 fps=9.0 q=36.0 size=    3478kB time=00:00:08.52 bitrate=3343.7kbits/s speed=0.158x    frame=  495 fps=9.1 q=36.0 size=    3478kB time=00:00:08.64 bitrate=3297.2kbits/s speed=0.158x    frame=  498 fps=9.0 q=36.0 size=    3478kB time=00:00:08.70 bitrate=3274.5kbits/s speed=0.158x    frame=  500 fps=8.1 q=-1.0 Lsize=    7421kB time=00:00:09.94 bitrate=6115.6kbits/s speed=0.161x    
video:7417kB audio:0kB subtitle:0kB other streams:0kB global headers:0kB muxing overhead: 0.059250%
bench: utime=223.084s
bench: maxrss=2224080kB
[libx264 @ 0x2b58120] frame I:3     Avg QP:32.64  size:245425
[libx264 @ 0x2b58120] frame P:183   Avg QP:34.28  size: 22131
[libx264 @ 0x2b58120] frame B:314   Avg QP:36.62  size:  8942
[libx264 @ 0x2b58120] consecutive B-frames: 16.0%  0.8%  0.0% 83.2%
[libx264 @ 0x2b58120] mb I  I16..4: 38.5% 51.0% 10.5%
[libx264 @ 0x2b58120] mb P  I16..4:  0.0%  0.0%  0.0%  P16..4: 22.5%  1.7%  3.0%  0.0%  0.0%    skip:72.7%
[libx264 @ 0x2b58120] mb B  I16..4:  0.0%  0.0%  0.0%  B16..8: 34.9%  0.1%  0.0%  direct: 0.0%  skip:65.0%  L0:45.7% L1:54.2% BI: 0.0%
[libx264 @ 0x2b58120] final ratefactor: 28.50
[libx264 @ 0x2b58120] 8x8 transform intra:50.4% inter:77.5%
[libx264 @ 0x2b58120] direct mvs  spatial:98.7% temporal:1.3%
[libx264 @ 0x2b58120] coded y,uvDC,uvAC intra: 59.5% 51.4% 26.3% inter: 1.6% 2.2% 0.0%
[libx264 @ 0x2b58120] i16 v,h,dc,p:  6% 17%  3% 74%
[libx264 @ 0x2b58120] i8 v,h,dc,ddl,ddr,vr,hd,vl,hu:  5%  7%  5% 13% 19% 12% 19%  8% 12%
[libx264 @ 0x2b58120] i4 v,h,dc,ddl,ddr,vr,hd,vl,hu:  3%  3%  2% 16% 20% 13% 20%  9% 15%
[libx264 @ 0x2b58120] i8c dc,h,v,p: 24% 52% 15%  9%
[libx264 @ 0x2b58120] Weighted P-Frames: Y:0.5% UV:0.0%
[libx264 @ 0x2b58120] ref P L0: 65.9% 24.0%  7.3%  1.3%  1.2%  0.3%
[libx264 @ 0x2b58120] ref B L0: 87.2%  9.6%  2.7%  0.5%
[libx264 @ 0x2b58120] ref B L1: 96.2%  3.8%
[libx264 @ 0x2b58120] kb/s:6075.39
